<?xml version="1.0" encoding="utf-8"?>
<!DOCTYPE svg PUBLIC "-//W3C//DTD SVG 1.1//EN" "http://www.w3.org/Graphics/SVG/1.1/DTD/svg11.dtd">
<svg version="1.1" xmlns="http://www.w3.org/2000/svg" xmlns:xlink="http://www.w3.org/1999/xlink" width="64" height="64" viewBox="0 0 64 64">
  <g transform="translate(18.000000,46.000000) scale(0.0080000,-0.0080000)"
      fill="currentColor" stroke="none">
      <path d="M1465 4564 c-834 -50 -1323 -187 -1441 -405 -18 -33 -19 -98 -22
      -1854 -3 -2060 -11 -1866 83 -1959 216 -216 963 -351 1850 -333 803 17 1373
      137 1572 333 103 101 94 -92 91 1965 -3 2046 7 1835 -98 1932 -158 146 -526
      247 -1100 302 -155 15 -788 28 -935 19z m765 -284 c285 -20 569 -60 752 -106
      118 -29 252 -77 292 -103 l29 -19 -34 -21 c-84 -51 -273 -106 -500 -145 -676
      -117 -1607 -96 -2176 49 -129 33 -293 99 -293 117 0 13 131 72 215 97 180 53
      467 100 730 121 77 6 158 12 180 13 100 8 675 6 805 -3z m-1856 -570 c644
      -217 1965 -237 2713 -39 62 16 136 38 163 49 28 11 55 20 60 20 7 0 10 -581
      10 -1600 l0 -1600 -38 -25 c-147 -97 -572 -183 -1072 -216 -224 -15 -821 -6
      -1025 15 -394 41 -655 97 -822 177 l-83 40 0 369 0 369 309 3 310 3 31 30 c61
      59 59 147 -6 204 l-35 31 -304 0 -305 0 0 223 0 224 302 1 c278 1 303 2 327
      19 45 34 64 69 64 117 0 52 -21 89 -66 116 -30 19 -52 20 -329 20 l-298 0 0
      220 0 220 287 0 c265 0 290 1 328 20 50 24 78 70 78 126 0 50 -21 87 -66 114
      -30 19 -52 20 -329 20 l-298 0 0 380 c0 209 1 380 3 380 2 0 43 -13 91 -30z"/>
      <path d="M2155 3020 c-29 -15 -62 -50 -121 -133 -158 -217 -336 -502 -427
      -682 -96 -192 -103 -423 -16 -605 117 -249 353 -400 624 -400 299 0 557 188
      652 475 23 70 27 97 27 210 0 117 -3 138 -27 209 -16 44 -63 141 -106 216
      -157 273 -419 664 -471 702 -40 29 -89 32 -135 8z m310 -755 c46 -77 99 -171
      117 -210 31 -65 33 -77 33 -175 0 -98 -2 -109 -32 -171 -39 -80 -120 -160
      -198 -195 -203 -93 -444 -5 -539 196 -29 61 -31 73 -31 176 l0 112 49 97 c65
      127 161 289 265 444 l83 124 85 -129 c46 -71 122 -192 168 -269z"/>
    </g>
</svg>

