<?xml version="1.0" encoding="utf-8"?>
<!DOCTYPE svg PUBLIC "-//W3C//DTD SVG 1.1//EN" "http://www.w3.org/Graphics/SVG/1.1/DTD/svg11.dtd">
<svg version="1.1" xmlns="http://www.w3.org/2000/svg" xmlns:xlink="http://www.w3.org/1999/xlink" width="64" height="64" viewBox="0 0 64 64">
  <g class="valve" transform="translate(6.000000,60.000000) scale(0.0100000,-0.0100000)"
      fill="currentColor" stroke="none">
      <path d="M971 5109 c-227 -44 -391 -278 -353 -505 31 -190 175 -339 361 -374
      31 -6 220 -10 442 -10 l389 0 0 -95 c0 -51 5 -118 11 -147 27 -125 115 -243
      224 -299 l65 -34 0 -172 0 -173 -89 0 c-48 0 -112 -5 -142 -10 -187 -36 -330
      -184 -361 -376 -30 -179 67 -373 227 -455 l66 -34 -3 -78 -3 -78 -80 -35 c-79
      -34 -120 -54 -202 -101 l-41 -24 -33 61 c-60 113 -184 199 -319 222 -182 31
      -378 -65 -461 -227 l-34 -65 -258 0 c-239 0 -261 -1 -297 -20 -26 -13 -47 -34
      -60 -60 -20 -38 -20 -57 -20 -820 0 -763 0 -782 20 -820 13 -26 34 -47 60 -60
      36 -19 58 -20 297 -20 l258 0 34 -65 c83 -162 279 -258 461 -227 135 23 259
      109 319 222 l33 61 32 -20 c103 -64 290 -144 431 -184 516 -148 1089 -103
      1547 123 45 23 97 50 114 61 l32 20 33 -61 c60 -113 184 -199 319 -222 182
      -31 378 65 461 227 l34 65 258 0 c239 0 261 1 297 20 26 13 47 34 60 60 20 38
      20 57 20 820 0 763 0 782 -20 820 -13 26 -34 47 -60 60 -36 19 -58 20 -297 20
      l-258 0 -34 65 c-83 162 -279 258 -461 227 -135 -23 -259 -109 -319 -222 l-33
      -61 -41 24 c-82 47 -123 67 -202 101 l-80 35 -3 78 -3 78 66 34 c160 82 257
      276 227 455 -31 192 -174 340 -361 376 -30 5 -94 10 -142 10 l-89 0 0 173 0
      172 65 34 c109 56 197 174 224 299 6 29 11 96 11 147 l0 95 389 0 c222 0 411
      4 442 10 186 35 330 184 361 374 38 231 -126 461 -361 506 -67 12 -3105 12
      -3170 -1z m3159 -309 c45 -23 80 -80 80 -130 0 -50 -35 -107 -80 -130 -39 -20
      -56 -20 -1570 -20 -1514 0 -1531 0 -1570 20 -45 23 -80 80 -80 130 0 48 35
      107 78 129 36 20 63 20 1570 21 1517 0 1533 0 1572 -20z m-1120 -670 c0 -112
      -20 -159 -80 -190 -37 -19 -58 -20 -370 -20 -312 0 -333 1 -370 20 -60 31 -80
      78 -80 190 l0 90 450 0 450 0 0 -90z m-300 -670 l0 -160 -150 0 -150 0 0 160
      0 160 150 0 150 0 0 -160z m520 -480 c45 -23 80 -80 80 -130 0 -50 -35 -107
      -80 -130 -38 -19 -58 -20 -670 -20 -612 0 -632 1 -670 20 -45 23 -80 80 -80
      130 0 48 35 107 78 129 36 19 60 20 670 21 615 0 634 -1 672 -20z m-220 -709
      c0 -71 5 -142 11 -158 18 -48 59 -81 128 -104 85 -28 235 -98 331 -154 41 -24
      87 -47 103 -50 l27 -7 0 -598 0 -598 -29 -7 c-16 -3 -60 -25 -98 -47 -377
      -228 -846 -302 -1316 -207 -186 37 -366 108 -530 207 -38 22 -82 44 -98 47
      l-29 7 0 598 0 598 28 7 c15 3 61 26 102 50 96 56 246 126 331 154 69 23 110
      56 128 104 6 16 11 87 11 158 l0 129 450 0 450 0 0 -129z m-1880 -191 c26 -13
      47 -34 60 -60 20 -38 20 -57 20 -820 0 -763 0 -782 -20 -820 -23 -45 -80 -80
      -130 -80 -50 0 -107 35 -130 80 -20 38 -20 57 -20 820 0 762 0 782 20 820 37
      73 124 99 200 60z m3000 0 c26 -13 47 -34 60 -60 20 -38 20 -57 20 -820 0
      -763 0 -782 -20 -820 -23 -45 -80 -80 -130 -80 -50 0 -107 35 -130 80 -20 38
      -20 57 -20 820 0 762 0 782 20 820 37 73 124 99 200 60z m-3520 -880 l0 -600
      -155 0 -155 0 0 600 0 600 155 0 155 0 0 -600z m4210 0 l0 -600 -155 0 -155 0
      0 600 0 600 155 0 155 0 0 -600z"/>
    </g>
</svg>

