<?xml version="1.0" encoding="utf-8"?>
<!DOCTYPE svg PUBLIC "-//W3C//DTD SVG 1.1//EN" "http://www.w3.org/Graphics/SVG/1.1/DTD/svg11.dtd">
<svg version="1.1" xmlns="http://www.w3.org/2000/svg" xmlns:xlink="http://www.w3.org/1999/xlink" width="64" height="64" viewBox="0 0 64 64">
  <g transform="translate(8.000000,54.000000) scale(0.0100000,-0.0100000)"
    fill="currentColor" stroke="none">
    <path d="M4233 4633 c-36 -7 -46 -31 -51 -119 l-5 -84 -1123 0 c-1214 0 -1240
    -1 -1445 -54 -577 -150 -1034 -579 -1219 -1145 -74 -227 -99 -522 -65 -763 60
    -427 275 -815 603 -1088 53 -45 127 -100 164 -123 37 -23 67 -46 68 -50 0 -5
    -62 -97 -139 -205 -76 -109 -143 -212 -150 -231 -35 -104 28 -232 136 -278 26
    -11 215 -13 1026 -13 l993 0 51 25 c76 38 123 115 123 201 0 66 -15 94 -164
    303 -75 105 -136 193 -136 196 0 2 35 28 78 56 176 119 334 272 458 444 78
    109 193 337 234 463 61 190 74 276 74 512 1 118 -3 239 -7 268 l-8 52 226 0
    225 0 0 -84 c0 -122 -16 -116 316 -116 263 0 271 1 290 21 18 20 19 52 22 894
    2 848 2 873 -17 896 l-19 24 -259 1 c-142 1 -268 0 -280 -3z m445 -910 l-3
    -778 -177 -3 -178 -2 0 780 0 780 180 0 180 0 -2 -777z m-498 -8 l0 -575 -281
    -2 -282 -3 -19 -26 c-20 -26 -20 -28 -1 -110 14 -67 18 -127 18 -299 0 -188
    -3 -228 -23 -318 -73 -328 -225 -597 -464 -828 -480 -462 -1205 -572 -1800
    -273 -839 421 -1135 1456 -647 2257 206 337 566 603 949 703 182 47 181 47
    1398 48 l1152 1 0 -575z m-1260 -2769 c73 -104 137 -201 143 -216 13 -33 -8
    -79 -43 -97 -20 -10 -233 -13 -993 -13 l-969 0 -29 29 c-52 52 -56 44 181 385
    85 122 68 117 205 61 205 -85 428 -121 687 -112 228 7 427 52 608 135 36 16
    68 27 71 23 3 -3 66 -91 139 -195z"/>
    <path d="M1775 4124 c-518 -92 -945 -460 -1110 -957 -59 -178 -70 -250 -70
    -462 0 -213 11 -284 71 -465 74 -221 251 -500 317 -500 27 0 67 41 67 67 0 8
    -27 51 -59 96 -79 110 -122 184 -166 292 -307 741 118 1580 900 1775 44 11
    139 25 210 31 144 13 165 23 165 74 0 55 -22 65 -141 64 -57 0 -140 -7 -184
    -15z"/>
    <path d="M1800 3665 c-106 -24 -206 -64 -284 -115 -132 -86 -171 -160 -164
    -309 3 -70 10 -99 35 -153 61 -130 175 -249 304 -318 51 -27 59 -35 59 -60 0
    -24 -5 -30 -32 -36 -159 -34 -281 37 -396 233 -86 145 -128 146 -198 6 -48
    -96 -64 -165 -64 -284 0 -230 105 -475 280 -650 171 -173 361 -235 502 -166
    160 79 274 298 282 542 3 92 5 100 26 109 20 9 28 5 62 -33 96 -109 87 -235
    -32 -441 -27 -48 -50 -95 -50 -104 0 -9 11 -28 25 -41 21 -22 33 -25 101 -25
    42 0 103 7 137 16 312 81 588 437 613 794 21 279 -99 416 -374 428 -133 6
    -223 -15 -359 -83 -95 -48 -103 -50 -122 -35 -21 15 -21 16 -4 65 22 66 101
    145 168 169 35 13 94 20 193 25 135 6 145 7 163 30 24 30 24 42 -2 94 -74 148
    -225 264 -424 327 -91 29 -344 38 -445 15z m425 -155 c39 -12 95 -35 126 -50
    61 -31 159 -105 159 -120 0 -6 -15 -10 -32 -10 -54 0 -166 -28 -224 -54 -63
    -29 -146 -104 -179 -161 -12 -22 -30 -64 -40 -92 -9 -29 -22 -53 -29 -53 -40
    0 -119 -35 -158 -69 l-45 -40 -63 37 c-75 45 -188 160 -221 228 -19 40 -24 64
    -24 131 l0 82 45 46 c54 55 178 119 270 140 99 22 324 14 415 -15z m515 -606
    c69 -20 123 -73 140 -134 18 -66 7 -209 -24 -305 -55 -172 -178 -338 -321
    -434 -68 -45 -170 -89 -181 -78 -2 2 5 25 16 51 56 131 67 279 30 379 -12 32
    -43 86 -69 120 -45 59 -47 63 -35 92 18 41 17 123 -1 174 l-14 41 42 22 c163
    86 295 108 417 72z m-631 -91 c91 -67 73 -208 -33 -248 -93 -36 -187 28 -188
    128 -2 86 68 152 151 143 24 -2 55 -12 70 -23z m-758 -155 c105 -105 234 -149
    375 -128 l75 12 35 -36 c40 -42 78 -63 131 -74 l38 -8 -3 -75 c-7 -192 -96
    -368 -213 -418 -62 -27 -95 -23 -189 22 -46 22 -89 56 -150 117 -97 97 -156
    192 -203 328 -28 78 -31 99 -31 212 -1 69 3 139 8 155 l8 30 31 -40 c18 -22
    57 -66 88 -97z"/>
  </g>
</svg>

